<?xml version="1.0" encoding="UTF-8" standalone="no"?>
<!-- Created with Inkscape (http://www.inkscape.org/) -->

<svg
   xmlns:dc="http://purl.org/dc/elements/1.1/"
   xmlns:cc="http://creativecommons.org/ns#"
   xmlns:rdf="http://www.w3.org/1999/02/22-rdf-syntax-ns#"
   xmlns:svg="http://www.w3.org/2000/svg"
   xmlns="http://www.w3.org/2000/svg"
   xmlns:sodipodi="http://sodipodi.sourceforge.net/DTD/sodipodi-0.dtd"
   xmlns:inkscape="http://www.inkscape.org/namespaces/inkscape"
   id="svg3039"
   version="1.1"
   inkscape:version="0.48.1 r9760"
   width="439.86737"
   height="453.21368"
   sodipodi:docname="logo.svg">
  <metadata
     id="metadata3045">
    <rdf:RDF>
      <cc:Work
         rdf:about="">
        <dc:format>image/svg+xml</dc:format>
        <dc:type
           rdf:resource="http://purl.org/dc/dcmitype/StillImage" />
        <dc:title></dc:title>
      </cc:Work>
    </rdf:RDF>
  </metadata>
  <defs
     id="defs3043" />
  <sodipodi:namedview
     pagecolor="#ffffff"
     bordercolor="#666666"
     borderopacity="1"
     objecttolerance="10"
     gridtolerance="10"
     guidetolerance="10"
     inkscape:pageopacity="0"
     inkscape:pageshadow="2"
     inkscape:window-width="1920"
     inkscape:window-height="1056"
     id="namedview3041"
     showgrid="false"
     inkscape:zoom="0.53530128"
     inkscape:cx="1635.7376"
     inkscape:cy="-79.837226"
     inkscape:window-x="1366"
     inkscape:window-y="24"
     inkscape:window-maximized="1"
     inkscape:current-layer="svg3039"
     fit-margin-top="0"
     fit-margin-left="0"
     fit-margin-right="0"
     fit-margin-bottom="0" />
  <g
     id="g3860"
     transform="matrix(0.68430846,0.72919265,-0.72919265,0.68430846,-706.11711,-1397.4754)"
     inkscape:export-xdpi="90"
     inkscape:export-ydpi="90">
    <g
       transform="matrix(0.72935613,-0.68413422,0.68413422,0.72935613,194.27178,1363.4496)"
       id="g3847">
      <path
         style="fill:#000000;stroke:#000000;stroke-width:1px;stroke-linecap:butt;stroke-linejoin:miter;stroke-opacity:1"
         d="m 1616.2998,551.55461 c 86.4419,-63.15426 231.1805,-215.87001 284.865,-338.53532 30.5851,-14.34129 110.953,46.44539 123.3384,105.27623 -145.7409,99.55105 -233.0751,202.95262 -308.6039,343.17986 0,0 -90.8265,-22.70664 -99.5995,-109.92077 z"
         id="path3049"
         inkscape:connector-curvature="0"
         sodipodi:nodetypes="ccccc" />
      <path
         style="fill:#ffffff;stroke:#000000;stroke-width:1px;stroke-linecap:butt;stroke-linejoin:miter;stroke-opacity:1"
         d="m 1625.5888,556.19915 c 12.4714,-11.57751 24.8683,-22.20752 37.1873,-33.7401 3.7703,8.37147 15.2576,23.22129 19.5264,23.87864 1.3284,-1.24906 2.6525,-2.50707 3.9722,-3.774 -5.6975,-1.87582 -16.7072,-14.02621 -18.9045,-23.65319 5.4903,-5.43588 11.0314,-10.94017 16.6139,-16.52281 3.8632,4.62879 12.6993,15.28999 18.9103,18.63108 1.1044,-1.10636 2.2066,-2.22061 3.3066,-3.34269 -4.5708,-3.26435 -16.07,-13.68282 -18.0725,-18.57332 5.7449,-5.92427 11.5617,-11.95218 17.4352,-18.09175 3.4783,5.26706 16.0078,18.13112 22.3364,22.44628 0.3372,-0.35307 2.965,-3.05297 3.3026,-3.40678 -4.9247,-3.41538 -20.2965,-19.06621 -21.8688,-22.9851 28.7014,-25.55205 69.4852,-71.28026 109.9907,-125.88488 3.8478,10.22368 12.2776,22.48421 19.7576,29.03964 7.019,-9.77229 28.4926,-34.67322 41.1971,-49.18896 -9.5452,-5.5594 -23.6814,-31.84468 -20.9732,-35.29144 0,0 29.1247,-46.14571 43.1429,-72.27126 8.885,35.56424 51.6679,89.51652 100.2717,98.47346 -26.2481,20.15133 -41.8084,29.48328 -64.3933,48.44658 -10.3387,-3.35711 -23.1969,-9.71831 -30.9896,-20.1895 -1.5249,1.91058 -3.6809,4.20658 -3.6809,4.20658 7.9772,10.81995 19.2691,16.28859 29.1666,20.62584 -4.5863,4.19446 -11.2794,10.49769 -15.6597,14.49799 -5.7263,-0.19215 -24.8808,-11.76489 -29.1778,-19.39031 l -2.9329,3.64407 c 5.0919,10.01175 21.0496,17.70585 27.2241,19.85293 -6.0646,5.54163 -9.7262,8.70956 -15.4231,13.96259 -4.5561,1.4943 -24.0267,-8.66527 -28.9765,-16.4731 0,0 -3.956,4.45099 -4.3475,4.81302 6.9789,9.04603 17.2847,13.81971 27.7567,17.79785 -45.6447,42.37337 -81.2706,77.60096 -111.2096,123.82314 -8.7763,-5.90406 -17.3892,-11.79925 -27.2611,-28.11446 -12.9971,18.02533 -38.7871,48.92911 -51.0118,66.31543 11.0346,19.0842 27.2863,27.27523 34.0592,30.10397 -7.4592,12.43598 -15.7636,25.16718 -23.0605,38.58081 -39.5762,-4.55276 -68.9801,-40.25268 -87.2142,-88.24625 z"
         id="path3819"
         inkscape:connector-curvature="0"
         sodipodi:nodetypes="ccccccccccccccccccccccccccccccccccccc" />
      <path
         style="fill:#ffffff;stroke:#000000;stroke-width:1px;stroke-linecap:butt;stroke-linejoin:miter;stroke-opacity:1"
         d="m 1823.3794,346.9506 31.7618,-45.35141 c 0,0 8.217,22.91273 18.4882,29.86556 -11.8514,14.2217 -34.4481,41.40094 -34.4481,41.40094 -7.9841,-8.31216 -12.1148,-14.90644 -15.8019,-25.91509 z"
         id="path3837"
         inkscape:connector-curvature="0"
         sodipodi:nodetypes="ccccc" />
      <path
         style="fill:#ffffff;stroke:#000000;stroke-width:1px;stroke-linecap:butt;stroke-linejoin:miter;stroke-opacity:1"
         d="m 1708.1837,575.9199 44.2452,-58.30896 c 6.7954,9.39287 14.5584,18.03321 25.125,24.49292 -13.9573,19.40154 -26.4315,39.29743 -39.1886,59.09905 -10.842,-3.0253 -23.039,-11.92924 -30.1816,-25.28301 z"
         id="path3839"
         inkscape:connector-curvature="0"
         sodipodi:nodetypes="ccccc" />
      <path
         style="fill:#ffffff;stroke:#000000;stroke-width:1px;stroke-linecap:butt;stroke-linejoin:miter;stroke-opacity:1"
         d="m 1949.4784,284.69117 c -36.5023,-39.50471 -36.9764,-57.99291 -35.2382,-60.83725 1.7383,-2.84434 21.9647,-8.05896 59.2571,26.70518 37.2925,34.76415 40.6109,58.30895 37.4505,62.8915 -3.1604,4.58255 -22.4387,5.37264 -61.4694,-28.75943 z"
         id="path3841"
         inkscape:connector-curvature="0" />
    </g>
    <text
       transform="matrix(1.1393353,-0.43295686,1.3435088,0.36716027,0,0)"
       sodipodi:linespacing="125%"
       id="text3843"
       y="1055.9014"
       x="325.15881"
       style="font-size:27.41694069px;font-style:normal;font-weight:normal;line-height:125%;letter-spacing:0px;word-spacing:0px;fill:#000000;fill-opacity:1;stroke:none;font-family:Sans"
       xml:space="preserve"><tspan
         style="font-size:98.70100403px;fill:#000000"
         y="1055.9014"
         x="325.15881"
         id="tspan3845"
         sodipodi:role="line">@</tspan></text>
  </g>
</svg>
